<mxfile host="app.diagrams.net" modified="2023-01-09T05:20:54.669Z" agent="5.0 (Windows NT 10.0; Win64; x64) AppleWebKit/537.36 (KHTML, like Gecko) Chrome/108.0.0.0 Safari/537.36 Edg/108.0.1462.76" version="20.6.1" etag="pzVMfVKVxIO-i2wdJ2um" type="github">
  <diagram id="1umuLqFR4W-xpN2qfuVu" name="第 1 页">
    <mxGraphModel dx="353" dy="763" grid="1" gridSize="10" guides="1" tooltips="1" connect="1" arrows="1" fold="1" page="1" pageScale="1" pageWidth="827" pageHeight="1169" math="0" shadow="0">
      <root>
        <mxCell id="0" />
        <mxCell id="1" parent="0" />
        <mxCell id="O9egBtn7fJthEDy0_053-1" value="" style="sketch=0;outlineConnect=0;fontColor=#232F3E;gradientColor=none;fillColor=#3F8624;strokeColor=none;dashed=0;verticalLabelPosition=bottom;verticalAlign=top;align=center;html=1;fontSize=12;fontStyle=0;aspect=fixed;pointerEvents=1;shape=mxgraph.aws4.bucket;" vertex="1" parent="1">
          <mxGeometry x="110" y="130" width="75" height="78" as="geometry" />
        </mxCell>
        <mxCell id="O9egBtn7fJthEDy0_053-2" value="Uploading Bucket" style="text;whiteSpace=wrap;html=1;" vertex="1" parent="1">
          <mxGeometry x="100" y="208" width="110" height="40" as="geometry" />
        </mxCell>
        <mxCell id="O9egBtn7fJthEDy0_053-5" style="rounded=0;orthogonalLoop=1;jettySize=auto;html=1;" edge="1" parent="1" source="O9egBtn7fJthEDy0_053-3" target="O9egBtn7fJthEDy0_053-1">
          <mxGeometry relative="1" as="geometry" />
        </mxCell>
        <mxCell id="O9egBtn7fJthEDy0_053-3" value="" style="sketch=0;aspect=fixed;pointerEvents=1;shadow=0;dashed=0;html=1;strokeColor=none;labelPosition=center;verticalLabelPosition=bottom;verticalAlign=top;align=center;fillColor=#00188D;shape=mxgraph.azure.file" vertex="1" parent="1">
          <mxGeometry x="390" y="430" width="47" height="50" as="geometry" />
        </mxCell>
        <mxCell id="O9egBtn7fJthEDy0_053-4" value="lsde-wordfreq-app" style="text;whiteSpace=wrap;html=1;" vertex="1" parent="1">
          <mxGeometry x="360" y="480" width="130" height="40" as="geometry" />
        </mxCell>
        <mxCell id="O9egBtn7fJthEDy0_053-6" value="Upload" style="text;whiteSpace=wrap;html=1;" vertex="1" parent="1">
          <mxGeometry x="250" y="320" width="70" height="40" as="geometry" />
        </mxCell>
      </root>
    </mxGraphModel>
  </diagram>
</mxfile>
